<svg width="1770" height="1080" viewBox="0 0 1770 1080" fill="none" xmlns="http://www.w3.org/2000/svg">
<g clip-path="url(#clip0_9_121)">
<path d="M0 671.4L42.2833 650.34C84.5667 629.46 169.133 587.34 253.307 579.96C337.677 572.4 421.457 599.4 505.827 595.8C590 592.2 674.567 558 758.74 568.8C843.11 579.6 926.89 635.4 1011.26 616.86C1095.43 598.14 1180 505.26 1264.17 467.64C1348.54 430.2 1432.32 448.2 1516.69 453.24C1600.87 458.46 1685.43 450.54 1727.72 446.76L1770 442.8V1081.8H1727.72C1685.43 1081.8 1600.87 1081.8 1516.69 1081.8C1432.32 1081.8 1348.54 1081.8 1264.17 1081.8C1180 1081.8 1095.43 1081.8 1011.26 1081.8C926.89 1081.8 843.11 1081.8 758.74 1081.8C674.567 1081.8 590 1081.8 505.827 1081.8C421.457 1081.8 337.677 1081.8 253.307 1081.8C169.133 1081.8 84.5667 1081.8 42.2833 1081.8H0V671.4Z" fill="#009673"/>
<path d="M0 649.8L42.2833 654.3C84.5667 658.8 169.133 667.8 253.307 697.86C337.677 727.74 421.457 778.86 505.827 800.1C590 821.34 674.567 813.06 758.74 779.04C843.11 745.2 926.89 685.8 1011.26 651.6C1095.43 617.4 1180 608.4 1264.17 600.84C1348.54 593.46 1432.32 587.34 1516.69 599.76C1600.87 612 1685.43 642.6 1727.72 657.9L1770 673.2V1081.8H1727.72C1685.43 1081.8 1600.87 1081.8 1516.69 1081.8C1432.32 1081.8 1348.54 1081.8 1264.17 1081.8C1180 1081.8 1095.43 1081.8 1011.26 1081.8C926.89 1081.8 843.11 1081.8 758.74 1081.8C674.567 1081.8 590 1081.8 505.827 1081.8C421.457 1081.8 337.677 1081.8 253.307 1081.8C169.133 1081.8 84.5667 1081.8 42.2833 1081.8H0V649.8Z" fill="#00816F"/>
<path d="M0 876.6L42.2833 863.46C84.5667 850.14 169.133 823.86 253.307 815.4C337.677 806.94 421.457 816.66 505.827 845.46C590 874.26 674.567 922.14 758.74 911.16C843.11 900 926.89 829.8 1011.26 797.04C1095.43 764.46 1180 769.14 1264.17 800.46C1348.54 831.6 1432.32 889.2 1516.69 907.74C1600.87 926.46 1685.43 905.94 1727.72 895.86L1770 885.6V1081.8H1727.72C1685.43 1081.8 1600.87 1081.8 1516.69 1081.8C1432.32 1081.8 1348.54 1081.8 1264.17 1081.8C1180 1081.8 1095.43 1081.8 1011.26 1081.8C926.89 1081.8 843.11 1081.8 758.74 1081.8C674.567 1081.8 590 1081.8 505.827 1081.8C421.457 1081.8 337.677 1081.8 253.307 1081.8C169.133 1081.8 84.5667 1081.8 42.2833 1081.8H0V876.6Z" fill="#1E5959"/>
</g>
<defs>
<clipPath id="clip0_9_121">
<rect width="1770" height="1080" fill="white"/>
</clipPath>
</defs>
</svg>
