<svg id="visual" viewBox="0 0 900 600" width="900" height="600" xmlns="http://www.w3.org/2000/svg" xmlns:xlink="http://www.w3.org/1999/xlink" version="1.1"><path d="M0 263L21.5 258.5C43 254 86 245 128.8 262.8C171.7 280.7 214.3 325.3 257.2 335.2C300 345 343 320 385.8 304.8C428.7 289.7 471.3 284.3 514.2 290.8C557 297.3 600 315.7 642.8 311.3C685.7 307 728.3 280 771.2 274.8C814 269.7 857 286.3 878.5 294.7L900 303L900 601L878.5 601C857 601 814 601 771.2 601C728.3 601 685.7 601 642.8 601C600 601 557 601 514.2 601C471.3 601 428.7 601 385.8 601C343 601 300 601 257.2 601C214.3 601 171.7 601 128.8 601C86 601 43 601 21.5 601L0 601Z" fill="#15aa73"></path><path d="M0 411L21.5 411.7C43 412.3 86 413.7 128.8 410.7C171.7 407.7 214.3 400.3 257.2 379.2C300 358 343 323 385.8 326.2C428.7 329.3 471.3 370.7 514.2 385.8C557 401 600 390 642.8 372.3C685.7 354.7 728.3 330.3 771.2 331.5C814 332.7 857 359.3 878.5 372.7L900 386L900 601L878.5 601C857 601 814 601 771.2 601C728.3 601 685.7 601 642.8 601C600 601 557 601 514.2 601C471.3 601 428.7 601 385.8 601C343 601 300 601 257.2 601C214.3 601 171.7 601 128.8 601C86 601 43 601 21.5 601L0 601Z" fill="#008f73"></path><path d="M0 455L21.5 448.5C43 442 86 429 128.8 418.5C171.7 408 214.3 400 257.2 411.5C300 423 343 454 385.8 451.3C428.7 448.7 471.3 412.3 514.2 406.2C557 400 600 424 642.8 441.5C685.7 459 728.3 470 771.2 465.2C814 460.3 857 439.7 878.5 429.3L900 419L900 601L878.5 601C857 601 814 601 771.2 601C728.3 601 685.7 601 642.8 601C600 601 557 601 514.2 601C471.3 601 428.7 601 385.8 601C343 601 300 601 257.2 601C214.3 601 171.7 601 128.8 601C86 601 43 601 21.5 601L0 601Z" fill="#097469"></path><path d="M0 478L21.5 485.7C43 493.3 86 508.7 128.8 519C171.7 529.3 214.3 534.7 257.2 534.8C300 535 343 530 385.8 517.8C428.7 505.7 471.3 486.3 514.2 482C557 477.7 600 488.3 642.8 492C685.7 495.7 728.3 492.3 771.2 499.5C814 506.7 857 524.3 878.5 533.2L900 542L900 601L878.5 601C857 601 814 601 771.2 601C728.3 601 685.7 601 642.8 601C600 601 557 601 514.2 601C471.3 601 428.7 601 385.8 601C343 601 300 601 257.2 601C214.3 601 171.7 601 128.8 601C86 601 43 601 21.5 601L0 601Z" fill="#1e5959"></path></svg>